HIERARCHY
ROOT Hips
{
  OFFSET 0.0000 0.0000 0.0000
  CHANNELS 6 Xposition Yposition Zposition Zrotation Xrotation Yrotation
  JOINT LeftHip
  {
    OFFSET 5.5000 -0.0000 -0.0000
    CHANNELS 3 Zrotation Xrotation Yrotation
    JOINT LeftKnee
    {
      OFFSET -0.0000 -17.5000 0.0000
      CHANNELS 3 Zrotation Xrotation Yrotation
      JOINT LeftAnkle
      {
        OFFSET 0.0000 -17.0000 -0.0000
        CHANNELS 3 Zrotation Xrotation Yrotation
        End Site
        {
            OFFSET 0.0000 -4.7000 -2.0000
        }
      }
    }
  }
  JOINT RightHip
  {
    OFFSET -5.5000 0.0000 0.0000
    CHANNELS 3 Zrotation Xrotation Yrotation
    JOINT RightKnee
    {
      OFFSET 0.0000 -17.5000 -0.0000
      CHANNELS 3 Zrotation Xrotation Yrotation
      JOINT RightAnkle
      {
        OFFSET 0.0000 -17.0000 0.0000
        CHANNELS 3 Zrotation Xrotation Yrotation
        End Site
        {
            OFFSET -0.0000 -4.7000 -2.0000
        }
      }
    }
  }
  JOINT Chest
  {
    OFFSET -0.0000 3.0000 -1.0000
    CHANNELS 3 Zrotation Xrotation Yrotation
    JOINT LeftCollar
    {
      OFFSET 0.0000 18.0000 1.0000
      CHANNELS 3 Zrotation Xrotation Yrotation
      JOINT LeftShoulder
      {
        OFFSET 6.5000 -0.0000 0.0000
        CHANNELS 3 Zrotation Xrotation Yrotation
        JOINT LeftElbow
        {
          OFFSET 0.0000 -11.0000 0.0000
          CHANNELS 3 Zrotation Xrotation Yrotation
          JOINT LeftWrist
          {
            OFFSET 0.0000 -10.5000 0.0000
            CHANNELS 3 Zrotation Xrotation Yrotation
            End Site
            {
                OFFSET 0.0000 -6.0000 -0.0000
            }
          }
        }
      }
    }
    JOINT RightCollar
    {
      OFFSET 0.0000 18.0000 1.0000
      CHANNELS 3 Zrotation Xrotation Yrotation
      JOINT RightShoulder
      {
        OFFSET -6.5000 -0.0000 0.0000
        CHANNELS 3 Zrotation Xrotation Yrotation
        JOINT RightElbow
        {
          OFFSET 0.0000 -11.0000 0.0000
          CHANNELS 3 Zrotation Xrotation Yrotation
          JOINT RightWrist
          {
            OFFSET 0.0000 -10.5000 -0.0000
            CHANNELS 3 Zrotation Xrotation Yrotation
            End Site
            {
                OFFSET 0.0000 -6.0000 0.0000
            }
          }
        }
      }
    }
    JOINT Neck
    {
      OFFSET 0.0000 18.0000 1.0000
      CHANNELS 3 Zrotation Xrotation Yrotation
      JOINT Head
      {
        OFFSET -0.0000 3.0000 0.0000
        CHANNELS 3 Zrotation Xrotation Yrotation
        End Site
        {
            OFFSET 0.0000 7.0000 0.0000
        }
      }
    }
  }
}
MOTION
Frames:	31
Frame Time:	0.033333
-2.9151 39.3677 -3.0928 1.14 -1.85 61.46 -5.53 -21.23 -12.80 0.00 27.91 1.48 -7.25 4.39 -36.19 1.22 -19.19 6.96 0.00 38.76 -1.28 13.68 -6.96 4.54 1.29 9.90 14.15 0.00 0.00 0.00 10.85 -3.58 19.68 0.00 -40.84 3.49 -15.46 6.43 -24.07 0.00 0.00 0.00 -107.18 -30.91 -96.93 -180.00 -57.65 174.50 -26.13 -10.10 50.27 0.00 0.00 0.00 30.21 -3.92 -22.81 
-4.2388 39.3194 -2.8786 1.29 -1.86 66.18 -4.84 -22.29 -13.26 -0.00 25.39 1.56 -7.49 8.43 -40.23 2.07 -18.10 8.71 0.00 37.52 -1.32 13.70 -10.35 4.40 1.11 9.69 15.02 0.00 0.00 0.00 11.09 -3.23 20.30 0.00 -42.78 3.68 -15.78 7.03 -25.17 0.00 0.00 0.00 -107.61 -32.31 -96.29 -180.00 -58.17 174.31 -25.38 -10.20 51.06 0.00 0.00 0.00 29.84 -3.42 -22.45 
-5.7629 39.1563 -2.4325 1.37 -1.91 70.53 -4.00 -23.75 -14.35 0.00 23.07 1.18 -8.41 12.34 -42.84 2.72 -16.87 8.57 -0.00 37.31 -2.00 13.21 -12.52 4.78 1.37 9.90 15.36 0.00 0.00 0.00 11.87 -2.63 21.39 0.00 -45.04 4.00 -16.29 7.33 -25.27 0.00 0.00 0.00 -106.95 -33.59 -95.75 -180.00 -58.65 174.37 -25.28 -10.82 50.48 0.00 0.00 0.00 29.99 -2.42 -22.66 
-6.3524 39.0836 -2.0831 1.27 -1.80 74.59 -4.22 -24.20 -15.79 -0.00 21.12 0.78 -8.48 14.72 -44.91 2.82 -14.64 7.98 -0.00 36.50 -2.45 12.67 -14.64 4.78 1.77 10.14 15.45 0.00 0.00 0.00 12.28 -2.04 22.89 -0.00 -47.86 4.40 -16.32 7.84 -24.93 0.00 0.00 0.00 -106.67 -35.17 -95.22 -180.00 -58.95 174.22 -25.33 -11.35 50.22 0.00 0.00 0.00 29.87 -1.74 -22.83 
-7.0383 39.0541 -1.5773 1.27 -1.77 78.72 -3.89 -24.11 -16.39 0.00 17.90 0.71 -8.37 17.94 -47.99 3.91 -14.85 7.88 -0.00 36.25 -2.39 12.00 -14.99 2.50 2.40 10.16 15.57 0.00 0.00 0.00 12.10 -1.99 24.20 0.00 -52.10 4.75 -16.09 9.24 -24.25 0.00 0.00 0.00 -107.04 -37.13 -94.56 180.00 -59.06 173.95 -25.23 -11.41 50.60 0.00 0.00 0.00 29.23 -2.67 -22.10 
-7.7840 38.9434 -1.0982 1.46 -1.85 82.76 -3.69 -24.28 -16.65 -0.00 15.25 0.81 -7.93 21.11 -51.58 4.86 -15.25 7.56 0.00 36.34 -2.40 11.70 -15.45 0.30 3.08 10.04 15.81 0.00 0.00 0.00 12.04 -3.10 25.50 0.00 -56.87 5.13 -15.87 10.89 -23.67 0.00 0.00 0.00 -106.90 -39.32 -93.59 180.00 -59.48 173.77 -24.96 -11.65 50.80 0.00 0.00 0.00 28.61 -2.86 -21.75 
-8.2550 38.8857 -0.9401 1.72 -1.87 86.54 -4.09 -24.54 -15.12 0.00 14.13 1.72 -4.94 21.88 -57.13 4.97 -15.21 6.79 0.00 36.14 -2.57 12.15 -15.95 -1.31 3.62 10.04 15.89 0.00 0.00 0.00 12.23 -5.41 26.87 0.00 -62.05 5.68 -15.47 12.46 -22.88 0.00 0.00 0.00 -106.48 -42.00 -92.38 -180.00 -60.29 173.43 -24.68 -12.45 51.01 0.00 0.00 0.00 27.78 -2.54 -22.03 
-8.5544 38.9327 -0.9147 1.99 -1.78 90.14 -4.27 -24.70 -10.58 -0.00 14.20 3.37 -0.03 19.80 -64.60 4.65 -14.78 5.80 -0.00 35.46 -2.72 12.61 -16.20 -2.59 3.88 10.03 15.84 0.00 0.00 0.00 12.46 -10.01 28.53 0.00 -67.18 6.60 -14.53 14.34 -22.55 0.00 0.00 0.00 -106.11 -44.85 -91.29 -180.00 -61.89 173.10 -24.33 -14.03 51.04 0.00 0.00 0.00 26.57 -2.08 -23.11 
-8.7942 39.0637 -0.9290 2.19 -1.70 93.69 -3.97 -24.63 -5.90 -0.00 15.22 4.09 3.41 15.36 -68.11 4.19 -14.06 4.47 0.00 34.22 -2.88 12.87 -16.00 -3.65 3.89 9.97 16.22 0.00 0.00 0.00 12.79 -16.71 30.70 -0.00 -71.36 7.70 -13.83 15.84 -22.74 0.00 0.00 0.00 -105.21 -48.14 -90.38 -180.00 -65.64 172.80 -23.30 -17.27 51.38 0.00 0.00 0.00 24.96 -1.03 -23.86 
-9.0010 39.2315 -0.6722 2.52 -1.49 96.81 -3.01 -24.39 -4.01 0.00 17.64 3.35 3.37 9.93 -63.90 3.93 -13.18 2.64 0.00 32.82 -3.12 12.78 -15.38 -4.22 3.96 9.75 16.14 0.00 0.00 0.00 13.01 -25.67 32.14 -0.00 -74.31 8.74 -12.27 17.28 -23.11 0.00 0.00 0.00 -103.45 -51.52 -88.92 -180.00 -71.68 172.43 -22.62 -21.36 50.89 0.00 0.00 0.00 23.20 -0.01 -24.60 
-9.3818 39.3514 -0.3258 3.24 -1.03 99.80 -2.33 -23.98 -3.35 0.00 20.24 2.65 2.69 5.56 -56.51 3.72 -12.51 1.19 -0.00 32.01 -3.10 12.65 -14.77 -5.46 4.08 9.36 15.75 0.00 0.00 0.00 13.05 -37.60 31.61 -0.00 -75.87 9.58 -9.54 18.75 -24.60 0.00 0.00 0.00 -101.20 -55.81 -86.99 180.00 -81.46 171.74 -22.06 -26.06 50.52 0.00 0.00 0.00 20.87 0.85 -25.23 
-9.8617 39.4340 -0.1814 3.95 -0.33 102.62 -1.90 -23.43 -3.22 0.00 22.55 2.21 2.02 2.26 -48.69 3.03 -12.12 -0.01 -0.00 31.72 -3.09 12.84 -14.39 -6.71 3.85 9.40 14.85 0.00 0.00 0.00 12.33 -50.95 28.41 0.00 -74.83 9.52 -5.61 17.57 -26.22 0.00 0.00 0.00 -101.20 -59.60 -86.94 -0.00 -86.79 -8.30 -22.62 -28.93 47.83 0.00 0.00 0.00 18.69 1.73 -26.02 
-9.9908 39.4959 -0.1606 4.37 0.37 104.89 -1.40 -22.87 -3.51 0.00 24.18 1.77 1.29 -0.33 -41.92 2.16 -11.56 -1.65 -0.00 31.81 -3.36 13.07 -14.44 -6.80 3.50 9.84 13.38 0.00 0.00 0.00 11.38 -63.38 23.80 0.00 -72.12 8.53 -1.76 13.92 -25.03 0.00 0.00 0.00 -103.88 -62.15 -89.22 0.00 -76.36 -7.55 -24.11 -28.61 40.78 0.00 0.00 0.00 17.28 1.84 -26.51 
-10.0919 39.5045 -0.2564 4.51 0.87 106.81 -0.49 -22.67 -3.35 0.00 24.96 1.71 0.63 -1.92 -38.22 1.10 -11.43 -3.74 -0.00 32.33 -3.74 13.32 -14.52 -6.16 3.04 10.47 11.88 0.00 0.00 0.00 9.64 -75.11 17.82 0.00 -70.42 7.47 2.70 9.94 -21.48 0.00 0.00 0.00 -108.79 -63.74 -93.11 -0.00 -69.43 -6.60 -24.93 -25.96 33.69 0.00 0.00 0.00 16.39 2.03 -26.92 
-10.2101 39.4458 -0.3285 4.71 1.18 108.04 0.56 -22.83 -3.07 0.00 25.36 1.72 0.28 -2.69 -36.28 0.07 -11.58 -6.32 -0.00 33.33 -4.14 13.51 -14.61 -4.54 2.68 11.02 10.10 0.00 0.00 0.00 10.11 -84.11 14.82 -0.00 -72.24 6.72 8.70 5.73 -20.18 0.00 0.00 0.00 -110.11 -64.56 -94.72 -0.00 -70.67 -6.15 -24.66 -23.35 32.16 0.00 0.00 0.00 15.80 1.51 -26.98 
-10.1722 39.4040 -0.3805 4.88 1.45 108.75 1.50 -22.82 -2.34 0.00 25.56 1.95 0.32 -3.13 -35.87 -0.70 -11.54 -8.30 0.00 34.17 -4.13 13.41 -14.78 -3.40 2.46 11.63 8.72 0.00 0.00 0.00 63.90 -89.14 66.79 -0.00 -77.08 6.23 14.52 1.00 -20.51 0.00 0.00 0.00 -109.44 -65.49 -94.39 -0.00 -76.96 -6.01 -24.97 -21.88 34.13 0.00 0.00 0.00 15.26 0.97 -26.71 
-10.3351 39.3271 -0.4480 4.94 1.75 109.05 1.91 -23.20 -1.75 -0.00 26.37 2.10 0.51 -3.50 -35.44 -1.65 -12.07 -10.07 -0.00 35.35 -4.10 13.26 -14.89 -2.16 2.42 12.16 7.75 0.00 0.00 0.00 150.50 -87.07 152.18 -0.00 -85.80 5.74 20.95 -4.20 -22.74 0.00 0.00 0.00 -108.01 -66.99 -93.47 0.00 -86.00 -6.19 -26.21 -22.59 37.84 0.00 0.00 0.00 14.98 0.71 -26.46 
-10.4072 39.2336 -0.3139 5.13 2.01 108.97 2.11 -23.40 -1.47 -0.00 27.54 2.15 0.37 -4.04 -34.36 -2.17 -12.49 -11.40 -0.00 36.50 -3.92 13.03 -15.16 -1.07 2.51 12.57 7.01 0.00 0.00 0.00 157.34 -85.18 158.60 -180.00 -87.70 -174.47 26.44 -12.07 -26.81 0.00 0.00 0.00 -109.91 -68.41 -95.87 180.00 -88.04 173.72 -28.03 -24.94 40.39 0.00 0.00 0.00 14.87 0.73 -26.35 
-10.5523 39.1084 -0.1909 5.42 2.24 108.80 2.26 -23.43 -1.22 0.00 29.02 2.28 0.02 -4.72 -33.15 -2.53 -13.10 -12.12 -0.00 37.90 -3.66 12.76 -15.48 -0.52 2.43 12.91 6.95 0.00 0.00 0.00 164.09 -83.82 165.50 -180.00 -86.76 -174.25 31.41 -21.41 -28.38 0.00 0.00 0.00 -113.04 -69.65 -99.12 180.00 -87.29 173.76 -29.85 -28.00 41.67 0.00 0.00 0.00 14.66 -0.23 -25.63 
-10.6942 38.9787 -0.1184 5.80 2.41 108.67 2.13 -23.40 -1.12 -0.00 30.47 2.35 -0.46 -5.52 -31.88 -2.76 -13.61 -12.41 -0.00 39.23 -3.42 12.60 -15.86 -0.35 2.24 13.09 7.26 0.00 0.00 0.00 169.56 -82.70 171.27 0.00 -88.73 5.90 35.50 -26.60 -23.81 0.00 0.00 0.00 -118.61 -70.62 -104.66 -0.00 -87.62 -6.26 -30.80 -30.90 41.27 0.00 0.00 0.00 14.32 -0.74 -24.71 
-10.8391 38.8641 -0.0903 6.28 2.47 108.64 2.12 -23.09 -0.98 0.00 31.33 2.44 -1.27 -5.90 -31.13 -2.80 -13.88 -12.42 -0.00 40.23 -3.24 12.55 -16.14 -0.49 1.92 13.17 7.49 0.00 0.00 0.00 175.13 -81.67 176.74 -0.00 -80.48 5.82 38.81 -28.02 -14.53 0.00 0.00 0.00 -124.84 -71.09 -109.47 -0.00 -79.34 -5.91 -31.59 -31.15 37.03 0.00 0.00 0.00 13.67 -1.19 -24.24 
-10.8092 38.7943 -0.0244 6.67 2.47 108.62 2.22 -22.82 -0.88 0.00 31.97 2.51 -2.04 -6.19 -30.82 -2.57 -13.76 -12.35 0.00 40.76 -3.14 12.44 -16.49 -0.65 1.76 13.34 7.59 0.00 0.00 0.00 177.79 -80.94 179.07 -0.00 -73.58 5.51 40.19 -27.06 -5.40 0.00 0.00 0.00 -130.12 -70.65 -113.12 -0.00 -72.17 -5.21 -31.87 -28.42 29.39 0.00 0.00 0.00 13.70 -1.35 -23.98 
-10.7741 38.7687 -0.0167 6.89 2.41 108.68 2.52 -22.67 -0.71 -0.00 32.62 2.60 -2.50 -6.60 -30.40 -2.38 -13.58 -12.25 0.00 40.88 -3.09 12.43 -16.66 -0.84 1.78 13.56 7.11 0.00 0.00 0.00 179.69 -82.18 -179.18 -0.00 -73.29 5.35 40.69 -26.02 -0.09 0.00 0.00 0.00 -130.50 -70.03 -112.41 -0.00 -70.36 -4.90 -32.34 -25.13 22.85 0.00 0.00 0.00 13.82 -1.43 -24.13 
-10.6695 38.7601 0.3334 6.81 2.27 108.73 3.57 -22.27 -0.32 0.00 32.67 2.77 -3.00 -6.82 -30.69 -1.55 -13.66 -12.08 -0.00 40.73 -2.88 11.74 -16.87 -1.53 1.93 13.79 6.62 0.00 0.00 0.00 162.22 -85.57 166.04 -0.00 -80.64 4.76 38.70 -27.11 -2.35 0.00 0.00 0.00 -123.34 -69.86 -104.33 0.00 -76.83 -4.83 -33.02 -24.29 23.54 0.00 0.00 0.00 14.73 -2.18 -24.07 
-10.6764 38.7358 0.8028 6.72 2.21 108.75 4.60 -21.91 0.57 0.00 32.58 3.01 -3.40 -6.91 -31.36 -0.72 -14.03 -12.05 0.00 40.67 -2.84 10.88 -16.85 -2.03 1.95 13.88 6.39 0.00 0.00 0.00 123.71 -87.05 131.22 -0.00 -86.38 4.53 36.91 -28.46 -5.17 0.00 0.00 0.00 -119.57 -70.13 -99.90 -0.00 -83.29 -5.20 -33.66 -25.59 27.71 0.00 0.00 0.00 15.14 -2.49 -23.94 
-10.7723 38.6994 1.1039 6.71 2.14 108.80 5.53 -21.87 1.23 0.00 32.64 3.02 -3.70 -6.80 -31.51 -0.20 -14.43 -12.01 0.00 40.76 -2.88 10.37 -16.74 -2.36 1.77 13.93 6.34 0.00 0.00 0.00 111.87 -86.92 121.11 -0.00 -86.25 4.97 36.48 -29.21 -5.17 0.00 0.00 0.00 -120.85 -70.64 -101.13 -0.00 -85.57 -5.57 -34.32 -27.33 30.74 0.00 0.00 0.00 15.05 -2.48 -23.89 
-10.8641 38.6553 1.2762 6.78 2.05 108.80 5.87 -22.03 1.56 -0.00 33.19 2.95 -3.85 -6.89 -30.99 0.15 -14.75 -11.98 0.00 40.94 -2.92 10.09 -16.66 -2.50 1.63 13.96 6.18 0.00 0.00 0.00 126.79 -86.47 136.43 0.00 -80.73 5.36 37.55 -27.84 -0.10 0.00 0.00 0.00 -125.10 -70.98 -106.00 0.00 -81.93 -5.77 -34.01 -28.93 30.92 0.00 0.00 0.00 14.28 -2.38 -23.39 
-10.8699 38.6194 1.4482 6.95 1.92 108.66 6.06 -21.94 1.62 0.00 33.76 2.84 -4.15 -7.15 -30.04 0.59 -14.78 -11.99 -0.00 40.99 -2.95 9.78 -16.63 -2.48 1.68 13.72 5.50 0.00 0.00 0.00 133.94 -86.62 143.47 -0.00 -74.15 5.35 38.88 -26.50 6.11 0.00 0.00 0.00 -130.01 -70.82 -111.47 0.00 -76.67 -5.78 -33.39 -27.79 27.75 0.00 0.00 0.00 13.63 -2.89 -22.37 
-10.7576 38.6091 1.6256 7.11 1.76 108.27 6.13 -21.77 1.40 0.00 34.33 2.72 -4.54 -7.33 -28.58 1.09 -14.53 -12.11 -0.00 40.81 -2.98 9.41 -16.59 -2.09 1.86 13.33 5.08 0.00 0.00 0.00 110.95 -87.19 120.18 0.00 -72.79 5.14 39.15 -24.70 8.74 0.00 0.00 0.00 -131.65 -71.04 -113.24 -0.00 -74.47 -5.64 -31.95 -25.20 25.16 0.00 0.00 0.00 13.89 -3.57 -21.00 
-10.6308 38.5989 1.9035 7.16 1.61 107.69 6.22 -21.66 1.15 -0.00 34.94 2.69 -5.24 -7.35 -26.90 1.81 -14.41 -11.93 -0.00 40.57 -2.84 8.80 -16.57 -2.07 2.13 13.26 4.85 0.00 0.00 0.00 54.80 -85.85 64.16 -0.00 -75.86 4.86 38.52 -24.69 7.93 0.00 0.00 0.00 -124.91 -72.37 -105.94 0.00 -78.15 -5.67 -31.57 -23.54 23.77 0.00 0.00 0.00 14.65 -4.39 -20.04 
-10.5370 38.6119 2.2336 7.19 1.55 106.97 6.21 -22.14 0.95 0.00 35.62 2.70 -5.80 -6.16 -25.32 2.67 -14.30 -11.27 -0.00 40.13 -2.58 8.08 -16.42 -2.55 2.24 13.21 4.63 0.00 0.00 0.00 39.82 -82.13 50.63 -0.00 -79.47 4.34 36.67 -25.67 5.05 0.00 0.00 0.00 -113.00 -74.03 -93.17 0.00 -83.10 -6.05 -30.71 -25.10 25.33 0.00 0.00 0.00 14.60 -5.11 -19.24 
